<svg xmlns="http://www.w3.org/2000/svg" viewBox="0 0 153.73 153.74"><defs><style>.cls-1{fill:#ee7760;}</style></defs><title>Risorsa 5</title><g id="Livello_2" data-name="Livello 2"><g id="Livello_1-2" data-name="Livello 1"><path class="cls-1" d="M104.63,111.11c-13.8-16.15-43.69-14.71-55.49,0a27.17,27.17,0,0,1-6.66,37.74c-10.64,7.47-26,6.07-34.84-3.36-9.6-10.21-10.23-25.4-1.48-36a27,27,0,0,1,36.32-5c14.44-11,16.71-41.38.1-55.51-7.13,4.76-14.87,6.25-23.21,3.81A26.12,26.12,0,0,1,4.58,42C-2.74,31.09-1.07,16.18,8.37,7.5,18.61-1.91,33.31-2.54,44,6a27,27,0,0,1,5.14,36.53c12.25,15.32,42.63,15.73,55.44,0a27.16,27.16,0,0,1,6.67-37.73c10.64-7.47,26-6.08,34.83,3.35,9.6,10.21,10.23,25.4,1.49,36a27,27,0,0,1-36.32,5c-14.43,11-16.73,41.36-.1,55.51,7.13-4.76,14.87-6.25,23.21-3.81a26.14,26.14,0,0,1,14.78,10.87c7.33,11,5.66,25.85-3.78,34.53-10.25,9.41-25,10-35.63,1.47A27,27,0,0,1,104.63,111.11Zm13.15-68.58a17.73,17.73,0,0,0,23.41-4.84A18,18,0,0,0,115.37,13c-6.92,5.6-8.72,15.61-4.26,22.67l9.06-9.08A7.92,7.92,0,0,1,119,25.7a4.44,4.44,0,0,1,0-6.33,4.38,4.38,0,0,1,6.33,0q4.65,4.47,9.12,9.13a4.36,4.36,0,0,1,0,6.21,4.49,4.49,0,0,1-6.24.18c-.52-.43-.85-1.11-1.46-1.26ZM42.51,35.87c4.64-7.26,2.71-17.51-4.39-23a18,18,0,0,0-24.76,25.9c6.35,7.29,16.5,7.8,22.39,3.77-2.93-2.93-5.89-5.89-8.89-8.91-.45.41-1,1-1.55,1.4a4.42,4.42,0,0,1-6-.34,4.26,4.26,0,0,1-.23-6c3.12-3.31,6.34-6.54,9.65-9.65a4.25,4.25,0,0,1,6,.3,4.42,4.42,0,0,1,.27,6c-.46.57-1,1.09-1.41,1.57Zm68.7,81.91a17.93,17.93,0,0,0,28.34,21.53,18,18,0,0,0,1.16-23.92A17.65,17.65,0,0,0,118,111.12l9,8.93c.38-.34.87-.85,1.41-1.28a4.41,4.41,0,0,1,6,.24,4.27,4.27,0,0,1,.25,6.08q-4.65,4.91-9.55,9.54a4.26,4.26,0,0,1-6-.2,4.47,4.47,0,0,1-.29-6.11c.45-.58,1.17-.94,1.38-1.63ZM35.94,111.2a17.93,17.93,0,0,0-21.28,28.58,18,18,0,0,0,23.82.82c6.85-5.71,8.58-15.63,4.14-22.56l-9,9a10.25,10.25,0,0,1,1.09,1,4.47,4.47,0,0,1,0,6.34,4.39,4.39,0,0,1-6.33,0q-4.64-4.49-9.12-9.13a4.37,4.37,0,0,1,.06-6.22,4.49,4.49,0,0,1,6.23-.17c.52.43.85,1.12,1.48,1.27Z"/></g></g></svg>