<svg xmlns="http://www.w3.org/2000/svg" viewBox="0 0 264.67 214.97"><title>Risorsa 2</title><g id="Livello_2" data-name="Livello 2"><g id="Livello_1-2" data-name="Livello 1"><path d="M0,188.14V62.53c.57-.12.47-.6.58-1,4.3-16.68,16-25.76,33.33-25.76q16.67,0,33.33,0c.9,0,1.87.3,3-.46,0-1.42-.06-3,0-4.49C70.86,15.91,80.6,4.22,95.14.85A31.41,31.41,0,0,1,102.31,0c20,0,40-.09,59.94,0,16.3.08,29.09,10.88,31.86,26.79a83.83,83.83,0,0,1,.62,8.92h2.86c11.45,0,22.91-.07,34.36,0,19,.14,32.69,14,32.7,32.86q0,56.72,0,113.42a34.66,34.66,0,0,1-1.39,10.18c-4.23,14-16.44,22.73-31.79,22.73H33.32c-.61,0-1.21,0-1.81,0-15-.47-26.87-10-30.65-24.56C.66,189.66,1,188.63,0,188.14ZM132.43,61.75c-32.8-.27-59.8,26.56-60.15,59.78-.34,32.94,26.59,60.14,59.8,60.39,33,.25,60.1-26.71,60.27-59.91S165.77,62,132.43,61.75Z"/><path d="M164.12,121.94A31.81,31.81,0,1,1,132.35,90,31.8,31.8,0,0,1,164.12,121.94Z"/></g></g></svg>