<?xml version="1.0" encoding="UTF-8"?>
<svg width="31px" height="32px" viewBox="0 0 31 32" version="1.1" xmlns="http://www.w3.org/2000/svg" xmlns:xlink="http://www.w3.org/1999/xlink">
    <!-- Generator: Sketch 53.2 (72643) - https://sketchapp.com -->
    <title>Group 3</title>
    <desc>Created with Sketch.</desc>
    <defs>
        <polygon id="path-1" points="0 0 31 0 31 31 0 31"></polygon>
    </defs>
    <g id="Page-1" stroke="none" stroke-width="1" fill="none" fill-rule="evenodd">
        <g id="home" transform="translate(-943.000000, -560.000000)">
            <g id="Group" transform="translate(-31.000000, 0.000000)">
                <g id="Group-4" transform="translate(399.979104, 553.000000)">
                    <g id="Group-3" transform="translate(574.000000, 7.629601)">
                        <mask id="mask-2" fill="white">
                            <use xlink:href="#path-1"></use>
                        </mask>
                        <g id="Clip-2"></g>
                        <path d="M0,25.9726748 C0.0482275742,25.9655773 0.058976662,25.9305916 0.0685791805,25.8892254 C0.449885157,24.2362244 1.54987515,23.219346 3.05983535,22.6211485 C4.918066,21.8848723 6.76088962,21.9712611 8.55204596,22.8864804 C8.63825364,22.9305709 8.71457217,23.0056324 8.8508706,22.9950219 L8.8508706,22.670831 C8.8508706,17.0590731 8.8508706,11.4473152 8.8508706,5.83548567 C8.8508706,4.91008617 9.09938951,4.58646878 9.99958979,4.38608982 C16.5227096,2.93396968 23.0462593,1.48349846 29.5707407,0.0374004434 C30.3883163,-0.143836768 30.9963564,0.3489019 30.9967147,1.18418463 C30.9992228,8.15859112 31.0040241,15.1329259 30.9934183,22.1072607 C30.9911252,23.6335103 30.1981291,24.738283 28.9718732,25.5542806 C26.8009157,26.9989448 23.6779474,26.9064622 21.620357,25.3103847 C20.3098999,24.2938647 19.6496192,22.9652698 20.0448274,21.2802226 C20.3607789,19.9328443 21.2651355,19.0164063 22.4686034,18.4257365 C24.4536733,17.4515148 26.4617462,17.4460662 28.4544838,18.4450933 C28.549864,18.4929118 28.6359284,18.5726333 28.7679272,18.568977 L28.7679272,9.1232061 C22.8630232,10.4361005 16.9749595,11.7453386 11.073997,13.0573727 L11.073997,13.4079463 C11.073997,17.6268733 11.022903,21.8466605 11.0938469,26.0644404 C11.1342635,28.4663353 9.6219385,29.8719991 8.01975113,30.5191622 C7.45678557,30.746569 6.87676479,30.9069439 6.26750649,30.9445104 C6.22544172,30.9470914 6.18896649,30.9529701 6.17542263,31 L4.72236094,31 C4.32141996,30.8973371 3.91288296,30.8176874 3.52089956,30.6880684 C2.08131005,30.2123207 0.915607304,29.3995492 0.289867069,27.9585414 C0.172845333,27.6890514 0.0955952213,27.4022836 0,27.1235454 L0,25.9726748 Z" id="Fill-1" fill="#FDFDFD" mask="url(#mask-2)"></path>
                    </g>
                </g>
            </g>
        </g>
    </g>
</svg>