<svg xmlns="http://www.w3.org/2000/svg" viewBox="0 0 171.13 171.18"><defs><style>.cls-1{fill:#ee7760;}</style></defs><title>Risorsa 4</title><g id="Livello_2" data-name="Livello 2"><g id="Livello_1-2" data-name="Livello 1"><path class="cls-1" d="M.18,143c2.11-9.13,8.19-14.75,16.53-18a35.45,35.45,0,0,1,30.36,1.46,2.82,2.82,0,0,0,1.51.62,4.13,4.13,0,0,0,.13-1.81q0-46.33,0-92.66c0-.51,0-1,0-1.51.06-3.6,1.87-5.88,5.36-6.65l80-17.77C143.78,4.48,153.5,2.31,163.23.2c4.52-1,7.88,1.72,7.88,6.34q0,57.78,0,115.58c0,8.43-4.4,14.53-11.17,19-12,8-29.21,7.41-40.65-1.33-4.81-3.67-8.13-8.39-9-14.5-1.14-7.64,1.66-13.91,7.2-19,6.65-6.1,14.72-8.51,23.61-8.47a34.37,34.37,0,0,1,16.18,4.1,2.85,2.85,0,0,0,1.58.61V50.39L61,72.13v1.93c0,23.53-.11,47.06,0,70.59C61.12,155.3,56,162.42,47,167.26a31.11,31.11,0,0,1-12.55,3.68,40.65,40.65,0,0,1-9.35-.07,36,36,0,0,1-8.65-2.35c-6.7-2.87-12.07-7.19-15.07-14.06h0A26.31,26.31,0,0,1,.18,143Z"/></g></g></svg>