<?xml version="1.0" encoding="UTF-8"?>
<svg width="37px" height="23px" viewBox="0 0 37 23" version="1.1" xmlns="http://www.w3.org/2000/svg" xmlns:xlink="http://www.w3.org/1999/xlink">
    <!-- Generator: Sketch 53.2 (72643) - https://sketchapp.com -->
    <title>Group 8</title>
    <desc>Created with Sketch.</desc>
    <defs>
        <polygon id="path-1" points="0 0.00643978719 24.8674631 0.00643978719 24.8674631 22.3199883 0 22.3199883"></polygon>
    </defs>
    <g id="Page-1" stroke="none" stroke-width="1" fill="none" fill-rule="evenodd">
        <g id="home" transform="translate(-700.000000, -563.000000)">
            <g id="Group" transform="translate(-31.000000, 0.000000)">
                <g id="Group-4" transform="translate(399.979104, 553.000000)">
                    <g id="Group-8" transform="translate(331.000000, 10.000000)">
                        <path d="M36.9957421,11.3927293 C36.9957421,9.24696613 36.9954693,7.1011793 36.9960148,4.9554161 C36.9961057,4.62254943 36.975469,4.29294478 36.8722854,3.97449713 C36.3433898,2.34207475 34.6660197,1.67941433 33.2044715,2.54602118 C31.1614814,3.75738448 29.1304006,4.99047087 27.0882968,6.2034179 C26.8684748,6.33396914 26.7929281,6.47827755 26.7937008,6.74049101 C26.8029737,9.83138563 26.8034055,12.9223748 26.7931099,16.0132931 C26.7922235,16.2829761 26.8828387,16.4143783 27.1000925,16.5426366 C29.0918999,17.7184724 31.0755935,18.9092 33.0648554,20.0897869 C33.2973368,20.2277604 33.5396137,20.3623064 33.7935045,20.4444712 C35.3865095,20.9599631 36.9766736,19.7447232 36.9908329,17.9833097 C37.0084923,15.7866071 36.995083,13.5895973 36.9957421,11.3927293" id="Fill-1" fill="#FDFDFD"></path>
                        <g id="Group-5" transform="translate(0.000000, 0.192442)">
                            <mask id="mask-2" fill="white">
                                <use xlink:href="#path-1"></use>
                            </mask>
                            <g id="Clip-4"></g>
                            <path d="M0,3.44872863 C0.128964411,3.38057948 0.103907708,3.23732907 0.131470081,3.12913658 C0.584597271,1.35126719 2.06919583,0.0957907121 3.8509935,0.0258806668 C4.66467112,-0.0060213657 5.48027789,0.0109930516 6.2949977,0.0108101009 C11.0640644,0.00982674075 15.833131,0.0152695248 20.6021977,0.00779141395 C22.3735292,0.00500141541 23.6856135,0.766671016 24.4854545,2.41389073 C24.7757131,3.01163648 24.8647198,3.65845876 24.8649637,4.31920817 C24.8665381,8.88012398 24.870219,13.4410398 24.8638772,18.0019327 C24.8608393,20.1932936 23.5255832,21.8785213 21.4970324,22.2591275 C21.1816727,22.318312 20.8528978,22.3172143 20.5302872,22.3174201 C15.1381512,22.3207361 9.74599309,22.32005 4.35383496,22.3196613 C2.11651531,22.3194783 0.720546515,21.2409381 0.0844832196,19.0225233 C0.0684735386,18.9666548 0.0794940531,18.8958757 0,18.8813769 L0,3.44872863 Z" id="Fill-3" fill="#FDFDFD" mask="url(#mask-2)"></path>
                        </g>
                        <path d="M36.9954295,11.3927293 C36.9950886,13.5895973 37.0085206,15.7866071 36.9908612,17.9833097 C36.9767019,19.7447232 35.3865142,20.9599631 33.7935311,20.4444712 C33.5396401,20.3623064 33.2973631,20.2277604 33.0648589,20.0897869 C31.0756186,18.9092 29.0919239,17.7184724 27.1001154,16.5426366 C26.8828615,16.4143783 26.7922235,16.2829761 26.7931099,16.0132931 C26.8034055,12.9223748 26.8029964,9.83138563 26.7937235,6.74049101 C26.7929281,6.47827755 26.8684976,6.33396914 27.088297,6.2034179 C29.1304246,4.99047087 31.1615065,3.75738448 33.2044978,2.54602118 C34.666024,1.67941433 36.3434178,2.34207475 36.8723136,3.97449713 C36.9754973,4.29294478 36.996134,4.62254943 36.9960431,4.9554161 C36.9954977,7.1011793 36.9957477,9.24696613 36.9954295,11.3927293" id="Fill-6" fill="#FDFDFD"></path>
                    </g>
                </g>
            </g>
        </g>
    </g>
</svg>