<svg xmlns="http://www.w3.org/2000/svg" viewBox="0 0 201.02 118.42"><defs><style>.cls-1{fill:#ee7760;}</style></defs><title>Risorsa 2</title><g id="Livello_2" data-name="Livello 2"><g id="Livello_1-2" data-name="Livello 1"><path class="cls-1" d="M0,22.6A22.45,22.45,0,0,1,3.67,10.11C9.41,1.54,19.11-.22,30.64,0c27.19.57,54.41.16,81.62.17,14.24,0,23.46,9.19,23.46,23.38q0,35.72,0,71.43c0,13.86-9.38,23.23-23.27,23.23-27.27,0-54.55-.4-81.81.17-11.53.24-21.23-1.51-27-10.09A22.42,22.42,0,0,1,0,95.83Z"/><path class="cls-1" d="M201,59.21q0,16.49,0,33c0,11.09-10.44,17.42-20.07,12-11.11-6.19-22.09-12.61-33.08-19a2.85,2.85,0,0,1-1.09-2.14q-.11-23.93,0-47.86a3.51,3.51,0,0,1,1.52-2.48q15.94-9.34,32-18.53c10.05-5.78,20.69.42,20.7,12.06Q201,42.74,201,59.21Z"/></g></g></svg>