<?xml version="1.0" encoding="UTF-8"?>
<svg width="43px" height="43px" viewBox="0 0 43 43" version="1.1" xmlns="http://www.w3.org/2000/svg" xmlns:xlink="http://www.w3.org/1999/xlink">
    <!-- Generator: Sketch 53.2 (72643) - https://sketchapp.com -->
    <title>Group 3</title>
    <desc>Created with Sketch.</desc>
    <defs>
        <polygon id="path-1" points="0 0 43 0 43 43 0 43"></polygon>
    </defs>
    <g id="Page-1" stroke="none" stroke-width="1" fill="none" fill-rule="evenodd">
        <g id="home" transform="translate(-454.000000, -553.000000)">
            <g id="Group" transform="translate(-31.000000, 0.000000)">
                <g id="Group-4" transform="translate(399.979104, 553.000000)">
                    <g id="Group-3" transform="translate(85.000000, 0.000000)">
                        <mask id="mask-2" fill="white">
                            <use xlink:href="#path-1"></use>
                        </mask>
                        <g id="Clip-2"></g>
                        <path d="M10.0387069,31.0917574 C7.71026546,29.7989973 4.99433903,30.3926867 3.44880728,32.5337833 C1.95609266,34.6017213 2.29238032,37.4649466 4.23370861,39.2166345 C6.07075693,40.8742577 8.97917778,40.8941545 10.8349471,39.2618207 C12.7058791,37.6160984 13.1649819,34.8049395 11.8946356,32.9891781 C11.0726375,33.8105516 10.2445583,34.6379818 9.4007323,35.4811382 C9.51645732,35.6085149 9.66484451,35.7542476 9.79283776,35.9160784 C10.2048592,36.4371139 10.1634871,37.1350158 9.70180854,37.5920044 C9.23954579,38.0495775 8.51354259,38.1171841 8.0315232,37.6615768 C7.1067056,36.7874462 6.20499051,35.8865918 5.33224651,34.9605011 C4.87850779,34.47902 4.9524624,33.7489752 5.41315843,33.2905786 C5.8744121,32.8316507 6.56836388,32.7954965 7.08928577,33.2110711 C7.25007397,33.339351 7.39567293,33.4867307 7.5269855,33.6060583 C8.37423708,32.7579343 9.201971,31.9293618 10.0387069,31.0917574 M31.0864531,32.9735847 C29.8065471,35.2532682 30.3820122,37.968184 32.492759,39.5197352 C34.5153444,41.0064425 37.3597686,40.7382741 39.0963608,38.8970639 C40.8482219,37.0396759 40.9459163,34.1812057 39.3240401,32.2340032 C37.7276828,30.317403 34.934987,29.8307153 33.0163098,31.0767485 C33.8405385,31.8984939 34.6770089,32.732459 35.5164534,33.5693727 C35.6302665,33.4657713 35.7760513,33.312999 35.9415928,33.1860474 C36.4509634,32.7954168 37.1349572,32.8429406 37.585058,33.2894098 C38.0348666,33.7355867 38.1279671,34.4600264 37.6928962,34.9251438 C36.8046975,35.8746643 35.8832257,36.7956281 34.9359429,37.6862818 C34.4709451,38.1234799 33.7503324,38.0387923 33.2987978,37.5931998 C32.8479269,37.148298 32.7935696,36.4620049 33.1803376,35.9508778 C33.3132169,35.7753132 33.4726774,35.6198313 33.5963688,35.4816164 C32.7544281,34.6402929 31.9264287,33.8129424 31.0864531,32.9735847 M9.41772726,7.49533233 C10.2669704,8.34443916 11.1000418,9.1773948 11.9238457,10.0010529 C13.191802,7.73629867 12.6151951,5.02146258 10.5051122,3.47270063 C8.46733756,1.9770145 5.6163809,2.25926204 3.87349525,4.12921504 C2.13799178,5.99122526 2.06456827,8.87764128 3.70397058,10.7930195 C5.3275729,12.689962 8.09512151,13.1591172 9.97879973,11.9181844 C9.15515522,11.0969968 8.31903003,10.2633505 7.48009005,9.42688834 C7.36765781,9.52918813 7.22187297,9.68198698 7.05617217,9.80875265 C6.54629699,10.1988785 5.86232975,10.1502655 5.41294599,9.70286666 C4.96380122,9.25573344 4.87213468,8.53201091 5.30757727,8.06686698 C6.19617438,7.11769177 7.11753988,6.19664833 8.0651679,5.30634 C8.52995334,4.86967318 9.25157503,4.9557952 9.70202097,5.40189241 C10.1522014,5.84775054 10.2054168,6.53359212 9.81793187,7.04448008 C9.68494636,7.21977904 9.525539,7.37504839 9.41772726,7.49533233 M32.961979,11.9025379 C35.2872339,13.194687 38.0044084,12.601343 39.5500199,10.4607245 C41.043478,8.39228178 40.7078808,5.53003943 38.7664197,3.77768736 C36.9294245,2.11963916 34.022172,2.09915795 32.1651812,3.73119953 C30.2947537,5.37506229 29.8361024,8.17942065 31.1051741,10.0064455 C31.9273846,9.18491255 32.7555169,8.35748232 33.5996616,7.51400715 C33.4835913,7.38609921 33.3353104,7.24020712 33.2071843,7.07834978 C32.7947912,6.55736732 32.8355525,5.85983737 33.2968858,5.40237057 C33.7588034,4.94437248 34.4850721,4.87602209 34.9670915,5.33146999 C35.8920684,6.2054943 36.7936507,7.106455 37.6665541,8.03241286 C38.1205052,8.51397364 38.0472942,9.24351378 37.5869433,9.7023885 C37.126088,10.1617679 36.4319769,10.1985332 35.9108956,9.78325076 C35.7499747,9.65499748 35.6043757,9.50753808 35.4734084,9.38850268 C34.6266613,10.2361485 33.7989805,11.0646678 32.961979,11.9025379 M36.2807483,43 L34.4331313,43 C34.1501122,42.8044323 33.8062034,42.8267199 33.4922747,42.7462561 C29.7215724,41.7795218 27.2416102,37.8235404 28.0227143,34.0351277 C28.2430114,32.9667577 28.6662654,31.9955871 29.2663466,31.1030473 C25.7458684,26.762067 17.2817174,26.7415326 13.7333569,31.1012409 C13.7722328,31.1636674 13.8142422,31.2335586 13.858615,31.301909 C16.5402594,35.4319143 14.7320494,40.8462056 10.107271,42.5559748 C9.54980992,42.762062 8.95689845,42.8104094 8.39832211,43 L6.5506785,43 C6.47205028,42.8379567 6.30608394,42.8966642 6.18395926,42.8705513 C3.38953738,42.2734351 1.48902352,40.6350977 0.441284605,37.9832991 C0.243851037,37.4836214 0.233654064,36.9346931 0,36.448271 L0,34.4323462 C0.195548191,34.1493018 0.173242313,33.8053184 0.253702799,33.4913529 C1.22031737,29.7199149 5.17536184,27.239829 8.96374955,28.0210105 C10.0319621,28.2412831 11.002905,28.6648005 11.8952729,29.2648389 C16.2448924,25.7337828 16.2451049,17.2601672 11.8981408,13.7311831 C11.834277,13.7700735 11.7634824,13.8108234 11.6951042,13.8552658 C7.56710953,16.5372682 2.15275615,14.7269524 0.441895361,10.1014932 C0.255163303,9.59660876 0.234291375,9.04930091 0,8.56133809 L0,6.54543987 C0.162195593,6.46625118 0.105634262,6.29958567 0.129506861,6.17728283 C0.985733892,1.78968184 5.26721426,-0.887167053 9.58414503,0.272797257 C13.2558252,1.25937525 15.6907507,5.07929344 15.0146436,8.79845259 C14.8100934,9.92372369 14.3811302,10.9601632 13.7282584,11.8886713 C17.3927157,16.346004 25.8896085,16.1386683 29.2549015,11.8953389 C26.7797193,8.22952125 27.9014924,3.95742259 30.6616058,1.70284257 C33.5307258,-0.640808124 37.7052441,-0.555615857 40.4409007,1.89878213 C43.2790846,4.44519945 43.8250209,8.52831845 41.7342432,11.7203322 C40.7485359,13.2252627 39.3755826,14.2524844 37.6562509,14.7721917 C35.3035385,15.4833758 33.1051084,15.0802865 31.0879136,13.7235857 C26.3564652,17.7922005 27.1706297,26.3097802 31.121691,29.2521145 C33.0369161,27.9736195 35.1071936,27.5676612 37.354856,28.1336173 C40.4617991,28.9158879 42.8133963,31.7733487 42.9835317,34.981487 C43.1603323,38.3156207 41.1681254,41.3735901 38.1075466,42.5100183 C37.5098287,42.7319645 36.8802719,42.803051 36.2807483,43" id="Fill-1" fill="#FDFDFD" mask="url(#mask-2)"></path>
                    </g>
                </g>
            </g>
        </g>
    </g>
</svg>