<svg xmlns="http://www.w3.org/2000/svg" viewBox="0 0 264.67 214.97"><defs><style>.cls-1{fill:#fff;}</style></defs><title>Risorsa 1</title><g id="Livello_2" data-name="Livello 2"><g id="Livello_1-2" data-name="Livello 1"><path class="cls-1" d="M264.65,68.64c0-18.9-13.75-32.72-32.7-32.86-11.45-.08-22.91,0-34.36,0h-2.86a83.83,83.83,0,0,0-.62-8.92C191.34,10.94,178.55.14,162.25.06c-20-.11-40,0-59.94,0a31.41,31.41,0,0,0-7.17.81C80.6,4.22,70.86,15.91,70.2,30.8c-.07,1.53,0,3.07,0,4.49-1.08.76-2,.46-3,.46q-16.66,0-33.33,0c-17.29,0-29,9.08-33.33,25.76-.11.4,0,.88-.58,1V188.14c1,.49.66,1.52.86,2.26C4.64,205,16.49,214.49,31.51,215c.6,0,1.2,0,1.81,0H231.49c15.35,0,27.56-8.77,31.79-22.73a34.66,34.66,0,0,0,1.39-10.18Q264.66,125.35,264.65,68.64ZM132.08,181.92c-33.21-.25-60.14-27.45-59.8-60.39.35-33.22,27.35-60,60.15-59.78,33.34.28,60.1,27.19,59.92,60.26S165.05,182.17,132.08,181.92Z"/><path class="cls-1" d="M164.12,121.94A31.81,31.81,0,1,1,132.35,90,31.8,31.8,0,0,1,164.12,121.94Z"/></g></g></svg>